<?xml version="1.0" encoding="UTF-8"?>
<svg width="14px" height="15px" viewBox="0 0 14 15" version="1.1" xmlns="http://www.w3.org/2000/svg" xmlns:xlink="http://www.w3.org/1999/xlink">
    <title>D7655E8D-F0F0-45AE-94CA-87BA093E1C14</title>
    <g id="branch-generator" stroke="none" stroke-width="1" fill="none" fill-rule="evenodd">
        <g id="home" transform="translate(-559.000000, -716.000000)" fill="#000000" fill-rule="nonzero">
            <g id="interface" transform="translate(559.000000, 716.000000)">
                <path d="M9.31940714,15 L1.68059286,15 C0.753519708,15 0,14.2212403 0,13.2631138 L0,4.73677057 C0,3.77864404 0.753519708,3 1.68059286,3 L1.9860738,3 C2.23907469,3 2.44440714,3.21221029 2.44440714,3.47368573 C2.44440714,3.73516117 2.23907469,3.94737146 1.9860738,3.94737146 L1.68059286,3.94737146 C1.25952148,3.94737146 0.916666667,4.30159493 0.916666667,4.73677057 L0.916666667,13.2631138 C0.916666667,13.6982894 1.25952148,14.0526285 1.68059286,14.0526285 L9.31940714,14.0526285 C9.74047852,14.0526285 10.0833333,13.6982894 10.0833333,13.2631138 L10.0833333,12.9474004 C10.0833333,12.6859249 10.2886658,12.4737146 10.5416667,12.4737146 C10.7946676,12.4737146 11,12.6859249 11,12.9474004 L11,13.2631138 C11,14.2212403 10.2464803,15 9.31940714,15 Z" id="Path"></path>
                <path d="M12.2813198,11 L5.71879471,11 C4.7706481,11 4,10.2464803 4,9.31940714 L4,1.68059286 C4,0.753519708 4.7706481,0 5.71879471,0 L12.2813198,0 C13.2294664,0 14,0.753519708 14,1.68059286 L14,9.31940714 C14,10.2464803 13.2294664,11 12.2813198,11 Z M5.71879471,0.916666667 C5.28815189,0.916666667 4.93750358,1.25952148 4.93750358,1.68059286 L4.93750358,9.31940714 C4.93750358,9.74047852 5.28815189,10.0833333 5.71879471,10.0833333 L12.2813198,10.0833333 C12.7119626,10.0833333 13.0624964,9.74047852 13.0624964,9.31940714 L13.0624964,1.68059286 C13.0624964,1.25952148 12.7119626,0.916666667 12.2813198,0.916666667 L5.71879471,0.916666667 Z" id="Shape"></path>
            </g>
        </g>
    </g>
</svg>